HIERARCHY
ROOT Hips
{
	OFFSET 0.000000 0.000000 0.000000
	CHANNELS 6 Xposition Yposition Zposition Xrotation Yrotation Zrotation
	JOINT LeftUpLeg_virtual
	{
		OFFSET 0.000000 0.000000 0.000000
		CHANNELS 3 Xrotation Yrotation Zrotation
		JOINT LeftUpLeg
		{
			OFFSET 11.394100 -6.187798 -0.413800
			CHANNELS 3 Xrotation Yrotation Zrotation
			JOINT LeftLeg
			{
				OFFSET 0.430247 -32.302673 3.732800
				CHANNELS 3 Xrotation Yrotation Zrotation
				JOINT LeftFoot
				{
					OFFSET -0.430247 -48.264931 -6.423300
					CHANNELS 3 Xrotation Yrotation Zrotation
					JOINT LeftToeBase
					{
						OFFSET 4.230900 -16.068199 23.438400
						CHANNELS 3 Xrotation Yrotation Zrotation
						JOINT LeftToe_End
						{
							OFFSET 4.510700 0.695400 19.974600
							CHANNELS 3 Xrotation Yrotation Zrotation
							End Site
							{
								OFFSET 0 0 0
							}
						}
					}
				}
			}
		}
	}
	JOINT RightUpLeg_virtual
	{
		OFFSET 0.000000 0.000000 0.000000
		CHANNELS 3 Xrotation Yrotation Zrotation
		JOINT RightUpLeg
		{
			OFFSET -11.333700 -6.187798 -0.413800
			CHANNELS 3 Xrotation Yrotation Zrotation
			JOINT RightLeg
			{
				OFFSET -0.430392 -32.302628 3.733000
				CHANNELS 3 Xrotation Yrotation Zrotation
				JOINT RightFoot
				{
					OFFSET 0.430392 -48.264973 -6.423500
					CHANNELS 3 Xrotation Yrotation Zrotation
					JOINT RightToeBase
					{
						OFFSET -4.230900 -16.068199 23.438400
						CHANNELS 3 Xrotation Yrotation Zrotation
						JOINT RightToe_End
						{
							OFFSET -4.510700 0.695400 19.974600
							CHANNELS 3 Xrotation Yrotation Zrotation
							End Site
							{
								OFFSET 0 0 0
							}
						}
					}
				}
			}
		}
	}
	JOINT Spine_virtual
	{
		OFFSET 0.000000 0.000000 0.000000
		CHANNELS 3 Xrotation Yrotation Zrotation
		JOINT Spine
		{
			OFFSET -0.002400 12.777504 0.315300
			CHANNELS 3 Xrotation Yrotation Zrotation
			JOINT Spine1
			{
				OFFSET -0.002067 5.816869 0.032633
				CHANNELS 3 Xrotation Yrotation Zrotation
				JOINT Spine1_split
				{
					OFFSET -0.002067 5.816869 0.032633
					CHANNELS 3 Xrotation Yrotation Zrotation
					JOINT Spine2
					{
						OFFSET -0.002067 5.816869 0.032633
						CHANNELS 3 Xrotation Yrotation Zrotation
						JOINT Neck_virtual
						{
							OFFSET 0.000000 0.000000 0.000000
							CHANNELS 3 Xrotation Yrotation Zrotation
							JOINT Neck
							{
								OFFSET -0.003700 21.199493 -0.826900
								CHANNELS 3 Xrotation Yrotation Zrotation
								JOINT Head
								{
									OFFSET 0.000000 20.442200 4.834800
									CHANNELS 3 Xrotation Yrotation Zrotation
									JOINT HeadTop_End
									{
										OFFSET 0.000000 34.668396 4.968400
										CHANNELS 3 Xrotation Yrotation Zrotation
										End Site
										{
											OFFSET 0 0 0
										}
									}
								}
							}
						}
						JOINT LeftShoulder_virtual
						{
							OFFSET 0.000000 0.000000 0.000000
							CHANNELS 3 Xrotation Yrotation Zrotation
							JOINT LeftShoulder
							{
								OFFSET 3.288150 8.794197 -1.372250
								CHANNELS 3 Xrotation Yrotation Zrotation
								JOINT LeftShoulder_split
								{
									OFFSET 3.288150 8.794197 -1.372250
									CHANNELS 3 Xrotation Yrotation Zrotation
									JOINT LeftArm
									{
										OFFSET 11.953299 -2.279007 -0.146200
										CHANNELS 3 Xrotation Yrotation Zrotation
										JOINT LeftForeArm
										{
											OFFSET 18.448900 0.000000 0.000000
											CHANNELS 3 Xrotation Yrotation Zrotation
											JOINT LeftHand
											{
												OFFSET 29.527798 0.000000 0.000000
												CHANNELS 3 Xrotation Yrotation Zrotation
												End Site
												{
													OFFSET 0 0 0
												}
											}
										}
									}
								}
							}
						}
						JOINT RightShoulder_virtual
						{
							OFFSET 0.000000 0.000000 0.000000
							CHANNELS 3 Xrotation Yrotation Zrotation
							JOINT RightShoulder
							{
								OFFSET -3.249400 8.794197 -1.372250
								CHANNELS 3 Xrotation Yrotation Zrotation
								JOINT RightShoulder_split
								{
									OFFSET -3.249400 8.794197 -1.372250
									CHANNELS 3 Xrotation Yrotation Zrotation
									JOINT RightArm
									{
										OFFSET -11.953299 -2.279007 -0.146200
										CHANNELS 3 Xrotation Yrotation Zrotation
										JOINT RightForeArm
										{
											OFFSET -18.448900 0.000000 0.000000
											CHANNELS 3 Xrotation Yrotation Zrotation
											JOINT RightHand
											{
												OFFSET -29.527802 0.000000 0.000000
												CHANNELS 3 Xrotation Yrotation Zrotation
												End Site
												{
													OFFSET 0 0 0
												}
											}
										}
									}
								}
							}
						}
					}
				}
			}
		}
	}
}
MOTION
Frames: 5
Frame Time: 0.03333333
-0.052425 104.297379 -0.470203 0.000000 0.000000 0.000000 -2.455980 6.719429 -2.249726 -7.548183 9.675948 10.405943 10.775923 -3.933868 1.597322 -1.671502 1.174924 -6.853401 2.099411 0.466807 -3.475597 0.000000 0.000000 0.000000 -1.941694 7.361079 -2.569566 -9.112714 -4.303377 -0.496845 6.149590 3.259143 -2.485862 3.655731 1.399494 -3.628175 -0.292166 -1.437557 -1.614045 0.000000 0.000000 0.000000 -2.395119 10.126621 -2.674068 8.270167 -1.001574 1.416529 2.584896 0.235496 -0.400451 0.144183 -1.833424 0.970055 0.000000 0.000000 0.000000 -3.933593 -0.038396 0.265061 -0.223524 0.900191 -0.110211 4.242432 -2.343090 -1.206659 0.000000 0.000000 0.000000 -3.951111 -0.377924 0.334761 0.473539 -2.766911 -7.220562 -2.324772 -2.376137 0.742746 4.913360 -3.719584 -73.121137 5.026289 -12.095693 1.522090 0.000000 0.000000 0.000000 -4.583318 -0.673230 0.338711 0.486202 8.000896 6.216535 -4.379139 -1.796136 -0.283166 4.803458 13.481403 74.655668 17.997326 18.971206 -3.620102 0.000000 0.000000 0.000000 
-0.067480 104.380142 -0.370197 0.000000 0.000000 0.000000 -2.230352 6.653025 -2.278236 -7.462411 9.759404 10.553498 10.376154 -3.804076 1.488078 -2.065570 0.955014 -6.673886 2.335020 0.442492 -3.398130 0.000000 0.000000 0.000000 -1.851645 7.198967 -2.562534 -9.209801 -4.166911 -0.438630 6.283458 3.322076 -2.502995 3.662418 1.539430 -3.890988 0.126784 -1.480058 -1.529283 0.000000 0.000000 0.000000 -2.020306 10.047725 -2.669461 8.369170 -0.969427 1.430055 2.596100 0.190254 -0.422556 0.380521 -2.084683 0.926404 0.000000 0.000000 0.000000 -3.921190 -0.046013 0.250839 -0.182428 1.012353 -0.182350 4.350853 -2.523438 -1.066764 0.000000 0.000000 0.000000 -3.947788 -0.410795 0.312760 0.518667 -2.957017 -7.329411 -2.253600 -2.334547 0.857746 4.727702 -3.626596 -73.232844 4.993680 -12.228492 1.464782 0.000000 0.000000 0.000000 -4.579960 -0.678970 0.365160 0.516164 8.019851 6.324802 -4.269875 -1.744179 -0.433812 4.925162 13.346934 74.577517 17.988348 19.131531 -3.642771 0.000000 0.000000 0.000000 
-0.111088 104.371658 -0.271164 0.000000 0.000000 0.000000 -2.060857 6.489984 -2.302381 -7.501312 9.902886 10.796843 10.083061 -3.661427 1.485758 -2.469578 0.597528 -6.783894 2.457396 0.407086 -3.198282 0.000000 0.000000 0.000000 -1.732517 7.027147 -2.582799 -9.548231 -4.014480 -0.338458 6.619102 3.529876 -2.491801 3.829944 1.742773 -4.063458 0.208753 -1.486216 -1.619210 0.000000 0.000000 0.000000 -1.677891 9.801150 -2.673716 8.660161 -0.926200 1.487480 2.524483 0.143457 -0.435259 0.485875 -2.194436 0.831387 0.000000 0.000000 0.000000 -3.928842 -0.066252 0.246458 -0.118202 1.192028 -0.233398 4.334805 -2.673780 -1.006088 0.000000 0.000000 0.000000 -3.987991 -0.450830 0.308159 0.564435 -3.241574 -7.454750 -2.150475 -2.217120 1.003101 4.524874 -3.440192 -73.288428 5.082813 -12.300484 1.351826 0.000000 0.000000 0.000000 -4.622194 -0.702364 0.391035 0.540664 7.948465 6.576092 -4.179885 -1.619285 -0.621552 5.220867 13.528089 74.150733 17.901366 19.342204 -3.637387 0.000000 0.000000 0.000000 
-0.180647 104.254784 -0.137680 0.000000 0.000000 0.000000 -1.956764 6.280598 -2.310447 -7.545704 9.997021 11.042202 9.939659 -3.521871 1.576664 -2.811091 0.196812 -7.139673 2.431165 0.368754 -2.875430 0.000000 0.000000 0.000000 -1.597136 6.811140 -2.608438 -10.077535 -3.925851 -0.216383 7.122323 3.852652 -2.444555 4.108156 1.964998 -4.187700 -0.003345 -1.471169 -1.810294 0.000000 0.000000 0.000000 -1.409616 9.355030 -2.655648 9.070456 -0.879894 1.547081 2.367390 0.098720 -0.421525 0.443988 -2.158950 0.753859 0.000000 0.000000 0.000000 -3.942251 -0.094351 0.260654 -0.026849 1.413246 -0.261128 4.193496 -2.791310 -1.014553 0.000000 0.000000 0.000000 -4.060934 -0.495330 0.331261 0.611366 -3.553610 -7.587649 -2.154890 -2.020700 1.052233 4.333092 -3.202775 -73.264700 5.295896 -12.252292 1.201030 0.000000 0.000000 0.000000 -4.707541 -0.741962 0.424766 0.566408 7.779644 6.928062 -4.130748 -1.471423 -0.843474 5.647930 13.999019 73.449826 17.734255 19.591370 -3.606159 0.000000 0.000000 0.000000 
-0.295887 104.079643 0.070786 0.000000 0.000000 0.000000 -1.891280 5.972266 -2.295221 -7.342803 9.976870 11.185149 9.907747 -3.286370 1.744808 -3.154399 -0.068377 -7.485482 2.349160 0.343113 -2.583268 0.000000 0.000000 0.000000 -1.445573 6.464046 -2.609128 -10.727631 -3.970845 -0.113854 7.726907 4.218145 -2.365189 4.444889 2.124597 -4.383635 -0.211970 -1.450632 -1.981602 0.000000 0.000000 0.000000 -1.228602 8.703032 -2.594044 9.505457 -0.845076 1.566728 2.150947 0.054768 -0.366509 0.384403 -2.019866 0.721790 0.000000 0.000000 0.000000 -3.948353 -0.131427 0.306090 0.086031 1.665401 -0.242735 3.950754 -2.869139 -1.078802 0.000000 0.000000 0.000000 -4.149418 -0.543442 0.390185 0.654982 -3.844507 -7.746469 -2.264894 -1.778266 0.994906 4.150291 -2.937199 -73.141538 5.617567 -12.053690 1.028186 0.000000 0.000000 0.000000 -4.815249 -0.795221 0.483136 0.606070 7.511552 7.311600 -4.058620 -1.346400 -1.085683 6.158215 14.711374 72.571798 17.497910 19.840274 -3.555726 0.000000 0.000000 0.000000 
